<svg width="44" height="38" viewBox="0 0 44 38" fill="none" xmlns="http://www.w3.org/2000/svg">
<path d="M0.933773 36.851C-0.155524 35.5529 0.0138037 33.6174 1.31198 32.5281L38.7433 1.11952C40.0415 0.0302181 41.9769 0.199547 43.0662 1.49772V1.49772C44.1555 2.79589 43.9862 4.73132 42.688 5.82062L5.25667 37.2292C3.9585 38.3185 2.02307 38.1492 0.933773 36.851V36.851Z" fill="white"/>
<path d="M0.93378 1.49728C2.02308 0.199107 3.95851 0.0297788 5.25668 1.11908L34.5055 25.6617L30.5608 30.3628L1.31198 5.82018C0.0138098 4.73088 -0.155517 2.79546 0.93378 1.49728V1.49728Z" fill="white"/>
<path d="M34.5055 25.6617L42.688 32.5277C43.9862 33.617 44.1555 35.5524 43.0662 36.8506V36.8506C41.9769 38.1488 40.0415 38.3181 38.7433 37.2288L30.5608 30.3628L34.5055 25.6617Z" fill="white"/>
</svg>
