<svg width="56" height="56" viewBox="0 0 56 56" fill="none" xmlns="http://www.w3.org/2000/svg">
<path fill-rule="evenodd" clip-rule="evenodd" d="M16.6625 0.339316C19.595 0.204316 20.53 0.174316 28 0.174316C35.47 0.174316 36.405 0.206816 39.335 0.339316C42.265 0.471816 44.265 0.939316 46.015 1.61682C47.8475 2.30932 49.51 3.39182 50.885 4.79182C52.285 6.16432 53.365 7.82432 54.055 9.65932C54.735 11.4093 55.2 13.4093 55.335 16.3343C55.47 19.2718 55.5 20.2068 55.5 27.6743C55.5 35.1443 55.4675 36.0793 55.335 39.0118C55.2025 41.9368 54.735 43.9368 54.055 45.6868C53.365 47.5221 52.2832 49.1848 50.885 50.5593C49.51 51.9593 47.8475 53.0393 46.015 53.7293C44.265 54.4093 42.265 54.8743 39.34 55.0093C36.405 55.1443 35.47 55.1743 28 55.1743C20.53 55.1743 19.595 55.1418 16.6625 55.0093C13.7375 54.8768 11.7375 54.4093 9.9875 53.7293C8.1523 53.0392 6.48955 51.9575 5.115 50.5593C3.71595 49.186 2.63329 47.524 1.9425 45.6893C1.265 43.9393 0.8 41.9393 0.665 39.0143C0.53 36.0768 0.5 35.1418 0.5 27.6743C0.5 20.2043 0.5325 19.2693 0.665 16.3393C0.7975 13.4093 1.265 11.4093 1.9425 9.65932C2.63431 7.82452 3.7178 6.1626 5.1175 4.78932C6.4901 3.39057 8.15118 2.30792 9.985 1.61682C11.735 0.939316 13.735 0.474316 16.66 0.339316H16.6625ZM39.1125 5.28932C36.2125 5.15682 35.3425 5.12932 28 5.12932C20.6575 5.12932 19.7875 5.15682 16.8875 5.28932C14.205 5.41182 12.75 5.85932 11.78 6.23682C10.4975 6.73682 9.58 7.32932 8.6175 8.29182C7.70511 9.17945 7.00295 10.26 6.5625 11.4543C6.185 12.4243 5.7375 13.8793 5.615 16.5618C5.4825 19.4618 5.455 20.3318 5.455 27.6743C5.455 35.0168 5.4825 35.8868 5.615 38.7868C5.7375 41.4693 6.185 42.9243 6.5625 43.8943C7.0025 45.0868 7.705 46.1693 8.6175 47.0568C9.505 47.9693 10.5875 48.6718 11.78 49.1118C12.75 49.4893 14.205 49.9368 16.8875 50.0593C19.7875 50.1918 20.655 50.2193 28 50.2193C35.345 50.2193 36.2125 50.1918 39.1125 50.0593C41.795 49.9368 43.25 49.4893 44.22 49.1118C45.5025 48.6118 46.42 48.0193 47.3825 47.0568C48.295 46.1693 48.9975 45.0868 49.4375 43.8943C49.815 42.9243 50.2625 41.4693 50.385 38.7868C50.5175 35.8868 50.545 35.0168 50.545 27.6743C50.545 20.3318 50.5175 19.4618 50.385 16.5618C50.2625 13.8793 49.815 12.4243 49.4375 11.4543C48.9375 10.1718 48.345 9.25432 47.3825 8.29182C46.4948 7.37949 45.4143 6.67734 44.22 6.23682C43.25 5.85932 41.795 5.41182 39.1125 5.28932V5.28932ZM24.4875 36.1518C26.4491 36.9684 28.6334 37.0786 30.6673 36.4636C32.7012 35.8486 34.4585 34.5466 35.639 32.7799C36.8196 31.0132 37.3501 28.8915 37.1401 26.7771C36.9301 24.6627 35.9925 22.6867 34.4875 21.1868C33.5281 20.228 32.368 19.4938 31.0908 19.0372C29.8136 18.5805 28.4511 18.4127 27.1012 18.5459C25.7514 18.679 24.4479 19.1098 23.2845 19.8071C22.1211 20.5045 21.1269 21.4512 20.3733 22.5789C19.6197 23.7067 19.1255 24.9875 18.9263 26.3292C18.7271 27.6709 18.8279 29.04 19.2213 30.3381C19.6148 31.6362 20.2912 32.8308 21.2018 33.8361C22.1124 34.8414 23.2346 35.6323 24.4875 36.1518ZM18.005 17.6793C19.3176 16.3668 20.8758 15.3256 22.5907 14.6152C24.3057 13.9049 26.1438 13.5393 28 13.5393C29.8562 13.5393 31.6943 13.9049 33.4093 14.6152C35.1242 15.3256 36.6824 16.3668 37.995 17.6793C39.3076 18.9919 40.3487 20.5501 41.0591 22.2651C41.7694 23.98 42.1351 25.8181 42.1351 27.6743C42.1351 29.5306 41.7694 31.3686 41.0591 33.0836C40.3487 34.7985 39.3076 36.3568 37.995 37.6693C35.3442 40.3202 31.7489 41.8094 28 41.8094C24.2511 41.8094 20.6558 40.3202 18.005 37.6693C15.3542 35.0185 13.8649 31.4232 13.8649 27.6743C13.8649 23.9255 15.3542 20.3302 18.005 17.6793V17.6793ZM45.27 15.6443C45.5953 15.3375 45.8557 14.9685 46.0358 14.5593C46.2159 14.15 46.312 13.7087 46.3185 13.2616C46.3251 12.8145 46.2418 12.3707 46.0737 11.9563C45.9056 11.542 45.6561 11.1656 45.3399 10.8494C45.0237 10.5332 44.6473 10.2837 44.233 10.1156C43.8186 9.94751 43.3748 9.86426 42.9277 9.87077C42.4806 9.87729 42.0393 9.97345 41.6301 10.1536C41.2208 10.3337 40.8518 10.5941 40.545 10.9193C39.9483 11.5519 39.6216 12.3921 39.6343 13.2616C39.6469 14.1312 39.998 14.9615 40.6129 15.5764C41.2278 16.1913 42.0582 16.5424 42.9277 16.5551C43.7972 16.5677 44.6374 16.241 45.27 15.6443V15.6443Z" fill="white"/>
</svg>
