<svg width="56" height="54" viewBox="0 0 56 54" fill="none" xmlns="http://www.w3.org/2000/svg">
<path d="M55.5 34.6838V19.2902H39.7857V25.0628H29.9643V9.66921C29.9643 8.64855 29.5504 7.6697 28.8136 6.94798C28.0769 6.22627 27.0776 5.82081 26.0357 5.82081H16.2143V0.0482178H0.5V15.4418H16.2143V9.66921H26.0357V44.3048C26.0357 45.3254 26.4496 46.3043 27.1864 47.026C27.9231 47.7477 28.9224 48.1532 29.9643 48.1532H39.7857V53.9258H55.5V38.5322H39.7857V44.3048H29.9643V28.9112H39.7857V34.6838H55.5ZM12.2857 11.5934H4.42857V3.89661H12.2857V11.5934ZM43.7143 42.3806H51.5714V50.0774H43.7143V42.3806ZM43.7143 23.1386H51.5714V30.8354H43.7143V23.1386Z" fill="white"/>
</svg>
