<svg width="56" height="38" viewBox="0 0 56 38" fill="none" xmlns="http://www.w3.org/2000/svg">
<path d="M9.66667 19.2734C9.66667 20.9609 11.0347 22.329 12.7222 22.329H43.2778C44.9653 22.329 46.3333 20.9609 46.3333 19.2734V19.2734C46.3333 17.5859 44.9653 16.2178 43.2778 16.2178H12.7222C11.0347 16.2178 9.66667 17.5859 9.66667 19.2734V19.2734ZM3.55556 0.940063C1.86802 0.940063 0.5 2.30808 0.5 3.99562V3.99562C0.5 5.68316 1.86802 7.05117 3.55556 7.05117H52.4444C54.132 7.05117 55.5 5.68316 55.5 3.99562V3.99562C55.5 2.30808 54.132 0.940063 52.4444 0.940063H3.55556ZM21.8889 34.5512C21.8889 36.2387 23.2569 37.6067 24.9444 37.6067H31.0556C32.7431 37.6067 34.1111 36.2387 34.1111 34.5512V34.5512C34.1111 32.8636 32.7431 31.4956 31.0556 31.4956H24.9444C23.2569 31.4956 21.8889 32.8636 21.8889 34.5512V34.5512Z" fill="white"/>
</svg>
