<svg width="56" height="47" viewBox="0 0 56 47" fill="none" xmlns="http://www.w3.org/2000/svg">
<path fill-rule="evenodd" clip-rule="evenodd" d="M25.5247 12.9303C25.5247 6.00211 31.141 0.385742 38.0692 0.385742C42.1371 0.385742 45.3825 2.30734 47.5569 5.09948C49.8567 4.62808 52.0615 3.77519 54.0799 2.57612C53.2983 5.00803 51.6622 7.07449 49.4744 8.39307L49.4825 8.40511C51.5594 8.15417 53.5874 7.59579 55.5 6.74828L55.496 6.75631C54.1441 8.78221 52.4471 10.5674 50.4894 12.0237C50.5937 12.7337 50.6499 13.4438 50.6499 14.1498C50.6499 28.9409 39.381 46.1431 18.6566 46.1431C12.5457 46.1484 6.56244 44.3936 1.42242 41.0883C1.18044 40.933 0.974671 40.7275 0.819072 40.4857C0.663472 40.2439 0.561677 39.9715 0.520587 39.6869C0.479497 39.4023 0.500072 39.1122 0.580918 38.8363C0.661765 38.5603 0.800992 38.305 0.989162 38.0876C1.1681 37.7901 1.42903 37.5505 1.74068 37.3975C2.05232 37.2445 2.40147 37.1847 2.74628 37.2251C6.42099 37.6583 10.0877 37.209 13.3251 35.7969C11.7283 35.0914 10.2987 34.0561 9.13029 32.7591C7.96185 31.462 7.08093 29.9325 6.54535 28.271C6.44632 27.9619 6.43244 27.6319 6.50515 27.3156C6.57787 26.9994 6.7345 26.7085 6.95856 26.4738C5.64015 25.3167 4.58411 23.8914 3.86112 22.2932C3.13813 20.6951 2.76488 18.9609 2.76634 17.2068V17.0704C2.76625 16.6507 2.91238 16.2441 3.17961 15.9205C3.44685 15.5969 3.81848 15.3765 4.23061 15.2972C3.32107 13.542 2.84772 11.5935 2.85059 9.61664C2.85059 7.73917 2.86262 5.37227 4.18247 3.23805C4.32348 3.01196 4.5128 2.81988 4.73683 2.67561C4.96087 2.53134 5.21406 2.43846 5.47824 2.40362C5.86131 2.28281 6.27182 2.27978 6.65663 2.39494C7.04143 2.51009 7.3828 2.73813 7.63653 3.0495C12.1085 8.5507 18.5046 12.146 25.5287 13.1068V12.9303H25.5247ZM18.6566 42.1314C15.5873 42.1336 12.5387 41.628 9.63435 40.635C13.1277 40.0588 16.4227 38.6222 19.2223 36.4548C19.5157 36.2247 19.7306 35.9093 19.8376 35.5521C19.9445 35.1948 19.9382 34.8132 19.8194 34.4597C19.7007 34.1062 19.4755 33.7982 19.1746 33.5779C18.8737 33.3576 18.512 33.2359 18.1391 33.2294C16.7961 33.2053 15.4768 32.8712 14.284 32.2533C13.0913 31.6354 12.0575 30.7503 11.2631 29.6671C12.0253 29.6069 12.7715 29.4745 13.4936 29.2819C13.8872 29.1767 14.2337 28.9414 14.4766 28.6143C14.7196 28.2872 14.8447 27.8875 14.8317 27.4803C14.8187 27.073 14.6683 26.6821 14.4049 26.3712C14.1416 26.0603 13.7808 25.8476 13.3813 25.7677C11.8551 25.4585 10.4391 24.7474 9.27964 23.7078C8.1202 22.6683 7.25936 21.338 6.78605 19.8545C7.58839 20.047 8.42683 20.1634 9.28534 20.1915C9.67766 20.2047 10.0636 20.0896 10.3847 19.8638C10.7057 19.6379 10.9444 19.3136 11.0646 18.9399C11.1848 18.5662 11.1799 18.1635 11.0507 17.7929C10.9214 17.4222 10.6749 17.1038 10.3484 16.8858C9.15135 16.0883 8.16978 15.0075 7.49092 13.7394C6.81206 12.4712 6.45694 11.055 6.4571 9.61664C6.4571 8.94268 6.46913 8.34493 6.50925 7.79934C12.1227 13.528 19.6885 16.9313 27.699 17.3311C28.0083 17.3469 28.3171 17.2907 28.6011 17.1672C28.8851 17.0436 29.1367 16.8559 29.336 16.6189C29.5354 16.3818 29.6771 16.1019 29.7502 15.8009C29.8232 15.4999 29.8255 15.186 29.757 14.884C29.4624 13.6313 29.4549 12.3283 29.7351 11.0723C30.0152 9.81638 30.5759 8.64007 31.375 7.63143C32.1741 6.6228 33.191 5.80797 34.3496 5.24792C35.5081 4.68788 36.7784 4.39713 38.0652 4.39743C43.0156 4.39743 46.6342 8.98279 46.6342 14.1539C46.6342 27.2159 36.7012 42.1314 18.6526 42.1314H18.6566Z" fill="white"/>
</svg>
