<svg width="56" height="41" viewBox="0 0 56 41" fill="none" xmlns="http://www.w3.org/2000/svg">
<path d="M55.5 19.9236C55.5 19.7886 55.5 19.6351 55.4939 19.4571C55.4877 18.9599 55.4754 18.4013 55.4632 17.8059C55.4141 16.0933 55.3281 14.3868 55.1931 12.7785C55.0089 10.5626 54.7388 8.71491 54.3705 7.32764C53.9819 5.87989 53.22 4.55952 52.1611 3.49849C51.1023 2.43745 49.7834 1.67292 48.3365 1.28132C46.5993 0.814802 43.1987 0.526297 38.4107 0.348284C36.1334 0.262346 33.6964 0.207101 31.2595 0.176409C30.4062 0.164132 29.6144 0.157994 28.9023 0.151855H27.0977C26.3856 0.157994 25.5937 0.164132 24.7405 0.176409C22.3036 0.207101 19.8666 0.262346 17.5893 0.348284C12.8013 0.532436 9.39453 0.82094 7.6635 1.28132C6.21608 1.67196 4.89674 2.43617 3.83772 3.49735C2.77869 4.55853 2.01717 5.87942 1.62946 7.32764C1.25502 8.71491 0.991071 10.5626 0.80692 12.7785C0.671875 14.3868 0.585937 16.0933 0.53683 17.8059C0.518415 18.4013 0.512277 18.9599 0.506138 19.4571C0.506138 19.6351 0.5 19.7886 0.5 19.9236V20.2674C0.5 20.4024 0.5 20.5559 0.506138 20.7339C0.512277 21.2311 0.524553 21.7897 0.53683 22.3851C0.585937 24.0977 0.671875 25.8042 0.80692 27.4125C0.991071 29.6284 1.26116 31.4761 1.62946 32.8634C2.41518 35.8036 4.72321 38.124 7.6635 38.9097C9.39453 39.3762 12.8013 39.6647 17.5893 39.8427C19.8666 39.9286 22.3036 39.9839 24.7405 40.0146C25.5937 40.0269 26.3856 40.033 27.0977 40.0391H28.9023C29.6144 40.033 30.4062 40.0269 31.2595 40.0146C33.6964 39.9839 36.1334 39.9286 38.4107 39.8427C43.1987 39.6586 46.6055 39.37 48.3365 38.9097C51.2768 38.124 53.5848 35.8098 54.3705 32.8634C54.745 31.4761 55.0089 29.6284 55.1931 27.4125C55.3281 25.8042 55.4141 24.0977 55.4632 22.3851C55.4816 21.7897 55.4877 21.2311 55.4939 20.7339C55.4939 20.5559 55.5 20.4024 55.5 20.2674V19.9236V19.9236ZM51.0804 20.2428C51.0804 20.3717 51.0804 20.5129 51.0742 20.6786C51.0681 21.1574 51.0558 21.6853 51.0435 22.2562C51.0006 23.889 50.9146 25.5218 50.7857 27.038C50.62 29.0146 50.3867 30.6351 50.0982 31.7216C49.7176 33.1396 48.6004 34.2629 47.1886 34.6373C45.8996 34.9811 42.6523 35.2573 38.2388 35.4231C36.0045 35.509 33.5982 35.5642 31.1981 35.5949C30.3571 35.6072 29.5776 35.6133 28.8778 35.6133H27.1222L24.8019 35.5949C22.4018 35.5642 20.0017 35.509 17.7612 35.4231C13.3477 35.2512 10.0943 34.9811 8.81138 34.6373C7.39955 34.2568 6.28237 33.1396 5.90179 31.7216C5.61328 30.6351 5.38002 29.0146 5.21429 27.038C5.08538 25.5218 5.00558 23.889 4.95647 22.2562C4.93806 21.6853 4.93192 21.1513 4.92578 20.6786C4.92578 20.5129 4.91964 20.3656 4.91964 20.2428V19.9482C4.91964 19.8193 4.91964 19.6781 4.92578 19.5123C4.93192 19.0336 4.9442 18.5056 4.95647 17.9348C4.99944 16.302 5.08538 14.6692 5.21429 13.153C5.38002 11.1764 5.61328 9.55587 5.90179 8.46938C6.28237 7.05141 7.39955 5.92808 8.81138 5.55364C10.1004 5.20989 13.3477 4.93366 17.7612 4.76793C19.9955 4.68199 22.4018 4.62674 24.8019 4.59605C25.6429 4.58377 26.4224 4.57764 27.1222 4.57764H28.8778L31.1981 4.59605C33.5982 4.62674 35.9983 4.68199 38.2388 4.76793C42.6523 4.9398 45.9057 5.20989 47.1886 5.55364C48.6004 5.93422 49.7176 7.05141 50.0982 8.46938C50.3867 9.55587 50.62 11.1764 50.7857 13.153C50.9146 14.6692 50.9944 16.302 51.0435 17.9348C51.0619 18.5056 51.0681 19.0397 51.0742 19.5123C51.0742 19.6781 51.0804 19.8254 51.0804 19.9482V20.2428ZM22.5368 28.3209L36.7779 20.0341L22.5368 11.87V28.3209Z" fill="white"/>
</svg>
